<svg enable-background="new 0 0 510 510" height="512" viewBox="0 0 510 510" width="512" xmlns="http://www.w3.org/2000/svg"><path d="m90 160.436c-10.878 6.799-79.05 49.406-90 56.25l45 38.314 45 16.736 15-55.65z" fill="#8493fb"/><path d="m420 271.736 45-16.736 45-38.314v-.151-.151c-24.227-14.132-75.887-44.268-90-52.5l-15 53.926z" fill="#8493fb"/><path d="m90 0v271.736c9.178 5.615 61.553 58.264 61.553 58.264s51.273 10.749 61.553 17.036c6.337-4.846 20.947-2.036 20.947-2.036s14.074-24.745 20.946-30l15-157.5-14.999-157.5c-4.655 0-160.348 0-165 0z" fill="#f9f9f9"/><path d="m420 271.736c0-15.092 0-256.644 0-271.736-4.655 0-160.348 0-165 0v315c6.861 5.247 20.946 30 20.946 30s14.617-2.805 20.947 2.036c10.423-6.375 61.554-17.036 61.554-17.036s52.618-52.799 61.553-58.264z" fill="#e2dff4"/><path d="m180 225v15h75l15-45-15-45c-41.354 0-75 33.644-75 75z" fill="#dd4e4e"/><path d="m330 225c0-41.354-33.644-75-75-75v90h75c0-5.246 0-9.754 0-15z" fill="#c21456"/><path d="m202.5 127.5c0 28.948 23.55 52.5 52.5 52.5l15-52.5-15-52.5c-28.948 0-52.5 23.55-52.5 52.5z" fill="#edbba7"/><path d="m307.5 127.5c0-28.947-23.55-52.5-52.5-52.5v52.5 52.5c28.947 0 52.5-23.55 52.5-52.5z" fill="#e8a38b"/><path d="m0 216.686v293.314l120-60 93.106-102.964c-26.576-16.255-187.472-114.67-213.106-130.35z" fill="#a7cafc"/><path d="m296.894 347.036 93.106 102.964 120 60s0-277.014 0-293.314c-7.219 4.416-210.877 128.987-213.106 130.35z" fill="#a7cafc"/><path d="m0 510h255l15-97.5-15-97.5c-15.878 12.142-244.224 186.759-255 195z" fill="#8493fb"/><path d="m255 315v195h255c-23.596-18.044-224.77-171.883-255-195z" fill="#6666fa"/><path d="m180 420v30h75l15-15-15-15c-20.194 0-63.236 0-75 0z" fill="#f4d844"/><path d="m330 420c-20.194 0-63.236 0-75 0v30h75c0-10.492 0-19.508 0-30z" fill="#ecbd2c"/></svg>